<?xml version="1.0" standalone="no"?>
<!DOCTYPE svg PUBLIC "-//W3C//DTD SVG 20010904//EN"
 "http://www.w3.org/TR/2001/REC-SVG-20010904/DTD/svg10.dtd">
<svg version="1.0" xmlns="http://www.w3.org/2000/svg"
 width="50.000000pt" height="50.000000pt" viewBox="0 0 50.000000 50.000000"
 preserveAspectRatio="xMidYMid meet">

<g transform="translate(0.000000,50.000000) scale(0.100000,-0.100000)"
fill="#000000" stroke="none">
<path d="M196 469 c-40 -10 -97 -47 -128 -84 -22 -26 -40 -75 -27 -75 5 0 9 6
9 14 0 8 8 24 18 36 16 19 21 20 45 9 19 -8 27 -20 28 -38 0 -26 0 -26 11 -3
16 31 88 29 88 -4 0 -8 5 -14 10 -14 6 0 10 6 10 14 0 33 72 35 88 4 11 -23
11 -23 11 3 1 18 9 30 28 38 24 11 29 10 45 -9 10 -12 18 -28 18 -36 0 -8 4
-14 9 -14 34 0 -57 118 -111 143 -46 21 -106 27 -152 16z m44 -59 l0 -50 -35
0 c-19 0 -35 5 -35 11 0 24 45 89 62 89 4 0 8 -22 8 -50z m68 10 c31 -47 29
-60 -13 -60 l-35 0 0 51 c0 59 12 61 48 9z m-139 -10 c-12 -22 -24 -40 -28
-40 -11 0 -47 28 -41 32 78 62 98 64 69 8z m197 18 c16 -12 31 -24 34 -26 6
-4 -30 -32 -41 -32 -4 0 -16 18 -28 40 -24 47 -11 53 35 18z"/>
<path d="M41 278 c-1 -24 17 -68 28 -68 5 0 12 14 16 30 4 17 10 30 15 30 5 0
11 -13 15 -30 11 -49 29 -40 38 20 6 34 6 34 -5 8 -15 -35 -24 -35 -32 -3 -4
14 -11 25 -16 25 -5 0 -12 -11 -16 -25 -8 -32 -18 -32 -31 3 -7 17 -11 21 -12
10z"/>
<path d="M191 278 c-1 -24 17 -68 28 -68 5 0 12 14 16 30 4 17 10 30 15 30 5
0 11 -13 15 -30 11 -49 29 -40 38 20 6 34 6 34 -5 8 -15 -35 -24 -35 -32 -3
-4 14 -11 25 -16 25 -5 0 -12 -11 -16 -25 -8 -32 -18 -32 -31 3 -7 17 -11 21
-12 10z"/>
<path d="M341 278 c-1 -24 17 -68 28 -68 5 0 12 14 16 30 4 17 10 30 15 30 5
0 11 -13 15 -30 4 -16 11 -30 16 -30 12 0 31 49 26 69 -2 10 -6 6 -11 -11 -10
-35 -22 -36 -30 -3 -4 14 -11 25 -16 25 -5 0 -12 -11 -16 -25 -8 -32 -18 -32
-31 3 -7 17 -11 21 -12 10z"/>
<path d="M38 168 c3 -13 29 -46 57 -74 41 -42 61 -54 103 -63 85 -18 144 0
207 63 48 48 75 96 54 96 -5 0 -9 -6 -9 -14 0 -8 -8 -24 -18 -36 -16 -19 -21
-20 -45 -9 -19 8 -27 20 -28 38 0 26 0 26 -11 4 -16 -32 -88 -30 -88 3 0 8 -4
14 -10 14 -5 0 -10 -6 -10 -14 0 -33 -72 -35 -88 -3 -11 22 -11 22 -11 -4 -1
-18 -9 -30 -28 -38 -24 -11 -29 -10 -45 9 -10 12 -18 28 -18 36 0 8 -4 14 -9
14 -5 0 -6 -10 -3 -22z m202 -79 c0 -59 -12 -61 -47 -9 -32 47 -30 60 12 60
l35 0 0 -51z m90 37 c0 -17 -42 -78 -57 -84 -9 -2 -13 11 -13 47 l0 51 35 0
c23 0 35 -5 35 -14z m-161 -36 c29 -56 9 -54 -69 8 -6 4 30 32 41 32 4 0 16
-18 28 -40z m217 26 c10 -8 17 -16 14 -18 -78 -62 -98 -64 -69 -8 23 44 27 46
55 26z"/>
</g>
</svg>
